# AST/ASF file generated using VICON BodyLanguage
# -----------------------------------------------
:version 1.10
:name VICON
:units
  mass 1.0
  length 0.45
  angle deg
:documentation
   .ast/.asf automatically generated from VICON data using
   VICON BodyBuilder and BodyLanguage model FoxedUp or BRILLIANT.MOD
:root
   order TX TY TZ RX RY RZ
   axis XYZ
   position 0 0 0  
   orientation 0 0 0 
:bonedata
  begin
     id 1 
     name lhipjoint
     direction 0.621036 -0.695554 0.361275 
     length 2.46325 
     axis 0 0 0  XYZ
  end
  begin
     id 2 
     name lfemur
     direction 0.34202 -0.939693 0  
     length 6.54784  
     axis 0 0 20  XYZ
    dof rx ry rz
    limits (-160.0 20.0)
           (-70.0 70.0)
           (-60.0 70.0)
  end
  begin
     id 3 
     name ltibia
     direction 0.34202 -0.939693 0   
     length 7.84737   
     axis 0 0 20   XYZ
    dof rx
    limits (-10.0 170.0)
  end
  begin
     id 4 
     name lfoot
     direction 0.0790693 -0.217241 0.97291   
     length 2.59747   
     axis -90 7.62852e-016 20   XYZ
    dof rx rz
    limits (-45.0 90.0)
           (-70.0 20.0)
  end
  begin
     id 5 
     name ltoes
     direction 1.53572e-011 -4.21898e-011 1   
     length 1.29919   
     axis -90 7.62852e-016 20   XYZ
    dof rx
    limits (-90.0 20.0)
  end
  begin
     id 6 
     name rhipjoint
     direction -0.602353 -0.708375 0.367935   
     length 2.41867  
     axis 0 0 0  XYZ 
  end
  begin
     id 7 
     name rfemur
     direction -0.34202 -0.939693 0   
     length 6.92065   
     axis 0 0 -20   XYZ
    dof rx ry rz
    limits (-160.0 20.0)
           (-70.0 70.0)
           (-70.0 60.0)
  end
  begin
     id 8 
     name rtibia
     direction -0.34202 -0.939693 0   
     length 7.88883   
     axis 0 0 -20   XYZ
    dof rx
    limits (-10.0 170.0)
 end
 begin
     id 9 
     name rfoot
     direction -0.0768692 -0.211196 0.974416   
     length 2.43714  
     axis -90 -7.62852e-016 -20   XYZ
    dof rx rz
    limits (-45.0 90.0)
           (-20.0 70.0)
  end
  begin
     id 10 
     name rtoes
     direction -1.53575e-011 -4.21933e-011 1   
     length 1.22113   
     axis -90 -7.62852e-016 -20   XYZ
    dof rx
    limits (-90.0 20.0)
  end
  begin
     id 11 
     name lowerback
     direction 0.0197937 0.98943 -0.143655   
     length 2.16931   
     axis 0 0 0   XYZ
    dof rx ry rz
    limits (-20.0 45.0)
           (-30.0 30.0)
           (-30.0 30.0)
  end
  begin
     id 12 
     name upperback
     direction -0.00183968 0.999975 0.00684288   
     length 2.17221   
     axis 0 0 0   XYZ
    dof rx ry rz
    limits (-20.0 45.0)
           (-30.0 30.0)
           (-30.0 30.0)
  end
  begin
     id 13 
     name thorax
     direction -0.00950244 0.997208 0.0740685   
     length 2.22549   
     axis 0 0 0   XYZ
    dof rx ry rz
    limits (-20.0 45.0)
           (-30.0 30.0)
           (-30.0 30.0)
  end
  begin
     id 14 
     name lowerneck
     direction 0.0218238 0.996215 0.0841425   
     length 1.77269   
     axis 0 0 0   XYZ
    dof rx ry rz
    limits (-20.0 45.0)
           (-30.0 30.0)
           (-30.0 30.0)
  end
  begin
     id 15 
     name upperneck
     direction -0.00430652 0.994214 -0.107332   
     length 1.76534   
     axis 0 0 0   XYZ
    dof rx ry rz
    limits (-20.0 45.0)
           (-30.0 30.0)
           (-30.0 30.0)
  end
  begin
     id 16
     name head
     direction -0.00328946 0.998959 -0.0454998  
     length 1.82634  
     axis 0 0 0   XYZ
    dof rx ry rz
    limits (-20.0 45.0)
           (-30.0 30.0)
           (-30.0 30.0)
  end
  begin
     id 17 
     name lclavicle
     direction 0.970962 0.239191 0.00450212  
     length 3.84872  
     axis 0 0 0   XYZ
    dof ry rz
    limits (-20.0 10.0)
           (0.0 20.0)
  end
  begin
     id 18 
     name lhumerus
     direction 1 -4.48966e-011 5.74696e-028   
     length 5.22771   
     axis 180 -30 -90   XYZ
    dof rx ry rz
    limits (-60.0 90.0)
           (-90.0 90.0)
           (-90.0 90.0)
  end
  begin
     id 19
     name lradius
     direction 1 -4.4896e-011 4.25109e-027   
     length 3.45251   
     axis 180 -30 -90   XYZ
    dof rx
    limits (-10.0 170.0)
  end
  begin
     id 20
     name lwrist
     direction 1 -4.48971e-011 1.15382e-027   
     length 1.72626   
     axis -5.52449e-016 90 90   XYZ
    dof ry
    limits (-180.0 0.0)
 end
  begin
     id 21 
     name lhand
     direction 1 -4.49034e-011 2.30765e-027   
     length 0.552119   
     axis -1.47248e-015 90 90   XYZ
    dof rx rz
    limits (-90.0 90.0)
           (-45.0 45.0)
  end
  begin
     id 22 
     name lfingers
     direction 1 -4.48951e-011 4.61529e-027   
     length 0.445133   
     axis -2.94495e-015 90 90   XYZ
    dof rx
    limits (0.0 90.0)
  end
  begin
     id 23
     name lthumb
     direction 0.707107 -6.34991e-011 0.707107   
     length 0.639124   
     axis -90 45 2.85299e-015   XYZ
    dof rx rz
    limits (-45.0 45.0)
           (-45.0 45.0)
  end
  begin
     id 24 
     name rclavicle
     direction -0.97424 0.222511 -0.0366699   
     length 3.73439  
     axis 0 0 0   XYZ 
    dof ry rz
    limits (-10.0 20.0)
           (-20.0 0.0)
  end
  begin
     id 25 
     name rhumerus
     direction -1 -4.48956e-011 -4.97258e-028  
     length 5.2398   
     axis 180 30 90   XYZ
    dof rx ry rz
    limits (-90.0 60.0)
           (-90.0 90.0)
           (-90.0 90.0)
  end
  begin
     id 26 
     name rradius
     direction -1 -4.4897e-011 -1.72611e-027   
     length 3.48042   
     axis 180 30 90   XYZ
    dof rx
    limits (-10.0 170.0)
  end
  begin
     id 27 
     name rwrist
     direction -1 -4.48976e-011 1.15382e-027   
     length 1.74021   
     axis -5.52449e-016 -90 -90   XYZ
    dof ry
    limits (-180.0 0.0)
  end
  begin
     id 28
     name rhand
     direction -1 -4.48963e-011 2.30765e-027   
     length 0.618713   
     axis -1.47248e-015 -90 -90   XYZ
    dof rx rz
    limits (-90.0 90.0)
           (-45.0 45.0)
  end
  begin
     id 29
     name rfingers
     direction -1 -4.4888e-011 4.61529e-027   
     length 0.498823   
     axis -2.94495e-015 -90 -90   XYZ
    dof rx
    limits (0.0 90.0)
  end
  begin
     id 30
     name rthumb
     direction -0.707107 -6.34968e-011 0.707107   
     length 0.716213   
     axis -90 -45 -2.85299e-015   XYZ
    dof rx rz
    limits (-45.0 45.0)
           (-45.0 45.0)
  end
:hierarchy
  begin
    root lhipjoint rhipjoint lowerback
    lhipjoint lfemur
    lfemur ltibia
    ltibia lfoot
    lfoot ltoes
    rhipjoint rfemur
    rfemur rtibia
    rtibia rfoot
    rfoot rtoes
    lowerback upperback
    upperback thorax
    thorax lowerneck lclavicle rclavicle
    lowerneck upperneck
    upperneck head
    lclavicle lhumerus
    lhumerus lradius
    lradius lwrist
    lwrist lhand lthumb
    lhand lfingers
    rclavicle rhumerus
    rhumerus rradius
    rradius rwrist
    rwrist rhand rthumb
    rhand rfingers
  end

#!OML:ASF G:\JayActor3\Patient Classification 1\Patient 1\Session 5\male.ASF
:FULLY-SPECIFIED
:DEGREES
70
root 46.5059 16.7569 -4.63669 -25.194 85.2249 -51.4486
lowerback 14.9895 -1.34184 3.91844
upperback 4.976 -0.97481 -0.0417021
thorax -3.19743 -0.377164 -2.09356
lowerneck 2.49511 0.288199 2.23239
upperneck -18.4054 1.20307 1.36951
head -5.97254 0.512644 -0.029205
rclavicle 1.74931e-014 1.90833e-014
rhumerus -26.4986 1.84165 -89.8602
rradius 31.3755
rwrist -0.955438
rhand -22.0709 -8.06896
rfingers 7.12502
rthumb 4.34031 -38.0045
lclavicle 1.74931e-014 1.90833e-014
lhumerus -28.3949 -0.870462 85.8931
lradius 38.4702
lwrist 27.9007
lhand -20.0661 12.6226
lfingers 7.12502
lthumb 6.27598 42.5096
rfemur -40.3218 7.43465 21.4923
rtibia 31.109
rfoot -15.8636 -12.0553
rtoes 8.19288
lfemur -31.5413 7.98391 -20.1515
ltibia 16.7579
lfoot -8.76337 -2.4183
ltoes -8.45739
71
root 46.5077 16.7537 -4.63691 -25.3242 85.2296 -51.5441
lowerback 14.9946 -1.34799 3.92414
upperback 4.97792 -0.981509 -0.0391542
thorax -3.1986 -0.380357 -2.09289
lowerneck 2.50854 0.294991 2.23102
upperneck -18.389 1.21072 1.36557
head -5.9696 0.516446 -0.0306404
rclavicle 5.56597e-015 2.5842e-014
rhumerus -26.5421 1.85361 -89.8595
rradius 31.3979
rwrist -0.966762
rhand -22.0848 -8.07741
rfingers 7.12502
rthumb 4.32689 -38.0132
lclavicle 5.56597e-015 2.5842e-014
lhumerus -28.4412 -0.85634 85.8929
lradius 38.4577
lwrist 27.8907
lhand -20.0734 12.6407
lfingers 7.12502
lthumb 6.26899 42.5279
rfemur -40.2798 7.42825 21.4901
rtibia 31.1244
rfoot -15.935 -12.0144
rtoes 8.22133
lfemur -31.4979 7.91765 -20.1089
ltibia 16.777
lfoot -8.82276 -2.38556
ltoes -8.41116
72
root 46.5097 16.7507 -4.63694 -25.4201 85.2382 -51.6034
lowerback 15.004 -1.35426 3.92219
upperback 4.97748 -0.989347 -0.0374799
thorax -3.20457 -0.384278 -2.08854
lowerneck 2.51787 0.298798 2.23465
upperneck -18.371 1.21431 1.36035
head -5.96545 0.518056 -0.0330487
rclavicle 3.18055e-015 2.10712e-014
rhumerus -26.5894 1.85657 -89.858
rradius 31.4158
rwrist -0.972956
rhand -22.1011 -8.09385
rfingers 7.12502
rthumb 4.31113 -38.03
lclavicle 3.18055e-015 2.10712e-014
lhumerus -28.492 -0.836231 85.8906
lradius 38.4434
lwrist 27.881
lhand -20.0839 12.65
lfingers 7.12502
lthumb 6.25883 42.5375
rfemur -40.2339 7.41921 21.4831
rtibia 31.1404
rfoot -16.0097 -11.9678
rtoes 8.23749
lfemur -31.4585 7.88041 -20.0822
ltibia 16.8035
lfoot -8.87297 -2.389
ltoes -8.41114
73
root 46.5121 16.7479 -4.63688 -25.4839 85.2518 -51.6288
lowerback 15.0139 -1.36108 3.91515
upperback 4.97643 -0.99871 -0.0378481
thorax -3.21149 -0.388992 -2.08319
lowerneck 2.52085 0.299529 2.24467
upperneck -18.3515 1.21379 1.35364
head -5.95973 0.517423 -0.0367284
rclavicle -1.98785e-015 -4.21423e-014
rhumerus -26.6362 1.84424 -89.8554
rradius 31.4227
rwrist -0.96938
rhand -22.1164 -8.12142
rfingers 7.12502
rthumb 4.29633 -38.0578
lclavicle -1.98785e-015 -4.21423e-014
lhumerus -28.5441 -0.810903 85.8856
lradius 38.4253
lwrist 27.8718
lhand -20.0974 12.6489
lfingers 7.12502
lthumb 6.24582 42.5369
rfemur -40.1837 7.39818 21.4746
rtibia 31.1589
rfoot -16.0843 -11.9054
rtoes 8.24564
lfemur -31.4196 7.87013 -20.0702
ltibia 16.831
lfoot -8.91425 -2.43231
ltoes -8.39475
74
root 46.5152 16.7453 -4.63665 -25.5204 85.2695 -51.6255
lowerback 15.0245 -1.36859 3.90388
upperback 4.97411 -1.00967 -0.0398511
thorax -3.22021 -0.39457 -2.07686
lowerneck 2.51333 0.29635 2.25943
upperneck -18.3233 1.20707 1.34388
head -5.94946 0.513761 -0.0417195
rclavicle 2.38542e-014 2.3059e-014
rhumerus -26.6856 1.81946 -89.8526
rradius 31.4225
rwrist -0.959809
rhand -22.1348 -8.15416
rfingers 7.12502
rthumb 4.27857 -38.0909
lclavicle 2.38542e-014 2.3059e-014
lhumerus -28.5984 -0.78169 85.8783
lradius 38.4024
lwrist 27.8642
lhand -20.1136 12.6323
lfingers 7.12502
lthumb 6.23014 42.5207
rfemur -40.1304 7.36619 21.4659
rtibia 31.181
rfoot -16.1568 -11.8288
rtoes 8.24853
lfemur -31.3774 7.88309 -20.0692
ltibia 16.8543
lfoot -8.94744 -2.51322
ltoes -8.34742
75
root 46.5191 16.743 -4.63643 -25.5276 85.2917 -51.5909
lowerback 15.0307 -1.37664 3.8915
upperback 4.97191 -1.02185 -0.0441974
thorax -3.22657 -0.400716 -2.0722
lowerneck 2.50802 0.293178 2.27823
upperneck -18.2961 1.19947 1.3265
head -5.9398 0.509893 -0.0497477
rclavicle -2.0276e-014 -1.78906e-014
rhumerus -26.7346 1.78344 -89.8481
rradius 31.4116
rwrist -0.944669
rhand -22.1501 -8.1887
rfingers 7.12502
rthumb 4.26379 -38.1258
lclavicle -2.0276e-014 -1.78906e-014
lhumerus -28.6516 -0.748088 85.8685
lradius 38.3716
lwrist 27.855
lhand -20.1228 12.6165
lfingers 7.12502
lthumb 6.22127 42.5051
rfemur -40.0728 7.31692 21.4593
rtibia 31.2068
rfoot -16.2191 -11.7366
rtoes 8.22776
lfemur -31.3276 7.91498 -20.0784
ltibia 16.8678
lfoot -8.97034 -2.62979
ltoes -8.23339
76
root 46.524 16.7411 -4.63621 -25.506 85.3162 -51.5248
lowerback 15.0326 -1.38592 3.87802
upperback 4.97041 -1.03615 -0.0511266
thorax -3.22999 -0.407845 -2.0693
lowerneck 2.50409 0.291962 2.29854
upperneck -18.2687 1.19415 1.30584
head -5.93028 0.50726 -0.0591996
rclavicle -4.45278e-014 -2.26615e-014
rhumerus -26.785 1.74375 -89.8461
rradius 31.3939
rwrist -0.92593
rhand -22.1604 -8.22371
rfingers 7.12502
rthumb 4.25387 -38.161
lclavicle -4.45278e-014 -2.26615e-014
lhumerus -28.7034 -0.709847 85.8545
lradius 38.3333
lwrist 27.845
lhand -20.1164 12.6005
lfingers 7.12502
lthumb 6.22746 42.4889
rfemur -40.0108 7.25521 21.455
rtibia 31.2346
rfoot -16.2675 -11.6328
rtoes 8.19478
lfemur -31.2677 7.96197 -20.0958
ltibia 16.8702
lfoot -8.97889 -2.77301
ltoes -8.10289
77
root 46.5301 16.7399 -4.63603 -25.4666 85.3409 -51.4373
lowerback 15.0285 -1.39529 3.8643
upperback 4.97013 -1.05099 -0.0596506
thorax -3.22903 -0.415141 -2.06792
lowerneck 2.50584 0.296194 2.31952
upperneck -18.2417 1.19583 1.28081
head -5.92182 0.508253 -0.0705665
rclavicle -1.19271e-015 2.78299e-015
rhumerus -26.8384 1.70389 -89.8455
rradius 31.3728
rwrist -0.907545
rhand -22.1694 -8.24914
rfingers 7.12502
rthumb 4.24516 -38.1866
lclavicle -1.19271e-015 2.78299e-015
lhumerus -28.7545 -0.669612 85.8377
lradius 38.2887
lwrist 27.8333
lhand -20.0977 12.5983
lfingers 7.12502
lthumb 6.24545 42.4862
rfemur -39.9423 7.19199 21.451
rtibia 31.261
rfoot -16.2987 -11.5298
rtoes 8.14294
lfemur -31.1957 7.99876 -20.1099
ltibia 16.8624
lfoot -8.97617 -2.90916
ltoes -7.97758
78
root 46.5369 16.7395 -4.63591 -25.417 85.3661 -51.3365
lowerback 15.0212 -1.40467 3.84938
upperback 4.96965 -1.06621 -0.0684284
thorax -3.22651 -0.422626 -2.06609
lowerneck 2.51094 0.303484 2.33868
upperneck -18.2152 1.20155 1.25509
head -5.91405 0.511364 -0.0820975
rclavicle -1.35174e-014 -3.45885e-014
rhumerus -26.8971 1.6661 -89.8466
rradius 31.3513
rwrist -0.891771
rhand -22.1676 -8.28139
rfingers 7.12502
rthumb 4.24697 -38.2188
lclavicle -1.35174e-014 -3.45885e-014
lhumerus -28.8061 -0.628521 85.8208
lradius 38.2386
lwrist 27.8173
lhand -20.0788 12.6025
lfingers 7.12502
lthumb 6.2637 42.4899
rfemur -39.8674 7.13817 21.443
rtibia 31.281
rfoot -16.3154 -11.4376
rtoes 8.08655
lfemur -31.1138 8.02054 -20.1201
ltibia 16.8511
lfoot -8.96159 -3.02697
ltoes -7.92259
79
root 46.5447 16.74 -4.63583 -25.3908 85.3919 -51.2568
lowerback 15.009 -1.4148 3.83631
upperback 4.96917 -1.0824 -0.0769124
thorax -3.22152 -0.430564 -2.06489
lowerneck 2.51063 0.312238 2.35291
upperneck -18.1808 1.2095 1.23583
head -5.90294 0.515504 -0.0908411
rclavicle 1.27222e-014 7.95139e-016
rhumerus -26.9608 1.63302 -89.8491
rradius 31.3305
rwrist -0.879956
rhand -22.1557 -8.31491
rfingers 7.12502
rthumb 4.25838 -38.2521
lclavicle 1.27222e-014 7.95139e-016
lhumerus -28.8589 -0.586657 85.8037
lradius 38.1841
lwrist 27.7977
lhand -20.0608 12.6122
lfingers 7.12502
lthumb 6.28116 42.4991
rfemur -39.7834 7.09701 21.4316
rtibia 31.2898
rfoot -16.3195 -11.36
rtoes 8.02961
lfemur -31.0261 8.01941 -20.1226
ltibia 16.8421
lfoot -8.93631 -3.11582
ltoes -7.96286
80
root 46.5531 16.7416 -4.63581 -25.4712 85.4155 -51.2829
lowerback 14.9931 -1.42502 3.82972
upperback 4.96829 -1.09778 -0.081
thorax -3.21485 -0.438102 -2.06291
lowerneck 2.50066 0.318916 2.36289
upperneck -18.137 1.21389 1.21872
head -5.88722 0.518128 -0.0979083
rclavicle 6.75868e-015 6.75868e-015
rhumerus -27.0307 1.6005 -89.8485
rradius 31.3122
rwrist -0.868659
rhand -22.1408 -8.35138
rfingers 7.12502
rthumb 4.27278 -38.2883
lclavicle 6.75868e-015 6.75868e-015
lhumerus -28.9119 -0.547365 85.7908
lradius 38.1252
lwrist 27.7758
lhand -20.055 12.6143
lfingers 7.12502
lthumb 6.28668 42.501
rfemur -39.6889 7.07133 21.4236
rtibia 31.283
rfoot -16.3124 -11.3011
rtoes 7.97574
lfemur -30.9404 7.99853 -20.1115
ltibia 16.8441
lfoot -8.9 -3.17646
ltoes -8.11041
81
root 46.5622 16.7444 -4.63585 -25.6739 85.4398 -51.4311
lowerback 14.9741 -1.43625 3.83215
upperback 4.96646 -1.11321 -0.0819253
thorax -3.20768 -0.44568 -2.06273
lowerneck 2.48766 0.323342 2.37056
upperneck -18.0903 1.21508 1.20354
head -5.8701 0.519228 -0.103763
rclavicle 4.49253e-014 1.59028e-015
rhumerus -27.1063 1.57058 -89.8457
rradius 31.296
rwrist -0.862347
rhand -22.1232 -8.39441
rfingers 7.12502
rthumb 4.28982 -38.331
lclavicle 4.49253e-014 1.59028e-015
lhumerus -28.9648 -0.509652 85.7814
lradius 38.0618
lwrist 27.7506
lhand -20.0609 12.6051
lfingers 7.12502
lthumb 6.28103 42.492
rfemur -39.5821 7.0537 21.4205
rtibia 31.2588
rfoot -16.2917 -11.256
rtoes 7.91445
lfemur -30.8636 7.97081 -20.0936
ltibia 16.8616
lfoot -8.85003 -3.22796
ltoes -8.3139
